<?xml version="1.0" encoding="UTF-8"?>
<!DOCTYPE svg PUBLIC "-//W3C//DTD SVG 1.1//EN" "http://www.w3.org/Graphics/SVG/1.1/DTD/svg11.dtd">
<!-- Creator: CorelDRAW -->
<svg xmlns="http://www.w3.org/2000/svg" xml:space="preserve" width="14.1657mm" height="8.4024mm" version="1.1" style="shape-rendering:geometricPrecision; text-rendering:geometricPrecision; image-rendering:optimizeQuality; fill-rule:evenodd; clip-rule:evenodd"
viewBox="0 0 4.61 2.74"
 xmlns:xlink="http://www.w3.org/1999/xlink"
 xmlns:xodm="http://www.corel.com/coreldraw/odm/2003">
 <defs>
  <style type="text/css">
   <![CDATA[
    .fil0 {fill:#FEFEFE}
   ]]>
  </style>
 </defs>
 <g id="Слой_x0020_1">
  <metadata id="CorelCorpID_0Corel-Layer"/>
  <path id="vk.cdr" class="fil0" d="M0.15 0c-0.14,0.01 -0.17,0.08 -0.14,0.22 0.05,0.25 0.2,0.6 0.31,0.81 0.12,0.24 0.27,0.48 0.42,0.7 0.05,0.07 0.1,0.15 0.16,0.22 0.2,0.25 0.49,0.51 0.84,0.66 0.18,0.07 0.39,0.13 0.62,0.13 0.11,-0 0.24,-0.01 0.3,-0.07 0.03,-0.03 0.04,-0.09 0.04,-0.15 -0,-0.06 0,-0.13 0,-0.19 0,-0.08 -0.01,-0.3 0.02,-0.36 0.02,-0.05 0.07,-0.06 0.14,-0.05 0.13,0.01 0.27,0.14 0.36,0.21 0.04,0.03 0.06,0.06 0.1,0.09 0.06,0.06 0.17,0.17 0.23,0.24 0.02,0.02 0.03,0.03 0.05,0.05 0.03,0.03 0.06,0.06 0.09,0.1 0.02,0.02 0.08,0.07 0.1,0.09 0.09,0.07 0.19,0.05 0.32,0.05 0.12,0 0.26,0.01 0.37,-0 0.12,-0.01 0.18,-0.08 0.14,-0.21 -0.02,-0.08 -0.09,-0.18 -0.13,-0.24 -0.08,-0.1 -0.13,-0.16 -0.21,-0.26 -0.05,-0.06 -0.11,-0.12 -0.15,-0.17 -0.01,-0.01 -0.02,-0.01 -0.02,-0.02l-0.09 -0.09c-0.05,-0.05 -0.09,-0.09 -0.14,-0.14 -0.09,-0.1 -0.09,-0.15 -0.02,-0.25 0.08,-0.11 0.15,-0.22 0.23,-0.34 0.09,-0.14 0.21,-0.32 0.29,-0.46 0.06,-0.1 0.15,-0.27 0.17,-0.39 0.03,-0.16 -0.11,-0.15 -0.21,-0.15 -0.06,0 -0.13,0 -0.19,0 -0.09,0 -0.28,-0.01 -0.36,0.02 -0.09,0.04 -0.12,0.12 -0.16,0.21 -0.05,0.13 -0.19,0.38 -0.26,0.49 -0.1,0.16 -0.19,0.29 -0.31,0.44 -0.04,0.04 -0.15,0.15 -0.21,0.16 -0.14,0.04 -0.12,-0.14 -0.12,-0.24l0 -0.75c0,-0.11 0.02,-0.27 -0.06,-0.31 -0.05,-0.03 -0.11,-0.02 -0.17,-0.02 -0.19,0 -0.38,0 -0.56,0 -0.09,0 -0.26,-0.03 -0.27,0.1 -0.01,0.06 0.03,0.1 0.05,0.13 0.1,0.13 0.14,0.23 0.14,0.42 0,0.12 0,0.25 0,0.37 -0,0.12 0,0.25 -0,0.37 -0,0.05 -0.01,0.12 -0.05,0.14 -0.06,0.03 -0.15,-0.04 -0.19,-0.08 -0.02,-0.02 -0.03,-0.03 -0.05,-0.05 -0.09,-0.1 -0.16,-0.21 -0.23,-0.33 -0.13,-0.22 -0.28,-0.51 -0.36,-0.76 -0.02,-0.05 -0.03,-0.09 -0.05,-0.14 -0.02,-0.05 -0.04,-0.09 -0.06,-0.13 -0.07,-0.08 -0.18,-0.06 -0.31,-0.06 -0.07,0 -0.32,-0 -0.38,0z"/>
 </g>
</svg>
