<?xml version="1.0" encoding="UTF-8"?>
<!DOCTYPE svg PUBLIC "-//W3C//DTD SVG 1.1//EN" "http://www.w3.org/Graphics/SVG/1.1/DTD/svg11.dtd">
<!-- Creator: CorelDRAW -->
<svg xmlns="http://www.w3.org/2000/svg" xml:space="preserve" width="20.7322mm" height="20.7323mm" version="1.1" style="shape-rendering:geometricPrecision; text-rendering:geometricPrecision; image-rendering:optimizeQuality; fill-rule:evenodd; clip-rule:evenodd"
viewBox="0 0 9.88 9.88"
 xmlns:xlink="http://www.w3.org/1999/xlink"
 xmlns:xodm="http://www.corel.com/coreldraw/odm/2003">
 <defs>
  <style type="text/css">
   <![CDATA[
    .fil1 {fill:#FEFEFE}
    .fil0 {fill:#90A4BD}
   ]]>
  </style>
 </defs>
 <g id="Слой_x0020_1">
  <metadata id="CorelCorpID_0Corel-Layer"/>
  <path class="fil0" d="M4.94 0c2.73,0 4.94,2.21 4.94,4.94 0,2.73 -2.21,4.94 -4.94,4.94 -2.73,0 -4.94,-2.21 -4.94,-4.94 0,-2.73 2.21,-4.94 4.94,-4.94z"/>
  <path class="fil1" d="M2.27 3.25c-0.17,0.01 -0.21,0.1 -0.17,0.27 0.06,0.31 0.24,0.74 0.38,1 0.15,0.29 0.33,0.6 0.52,0.87 0.06,0.09 0.13,0.18 0.2,0.27 0.24,0.31 0.61,0.63 1.04,0.81 0.22,0.09 0.48,0.17 0.77,0.16 0.14,-0 0.3,-0.01 0.38,-0.09 0.04,-0.04 0.04,-0.11 0.04,-0.18 0,-0.08 0,-0.16 0,-0.23 0,-0.1 -0.01,-0.37 0.02,-0.44 0.02,-0.06 0.09,-0.07 0.17,-0.06 0.15,0.01 0.33,0.17 0.44,0.26 0.05,0.04 0.08,0.07 0.12,0.11 0.08,0.07 0.21,0.21 0.28,0.29 0.02,0.02 0.04,0.04 0.06,0.06 0.04,0.04 0.07,0.08 0.11,0.12 0.02,0.03 0.1,0.09 0.12,0.11 0.11,0.08 0.24,0.06 0.4,0.06 0.15,0 0.32,0.01 0.46,-0 0.15,-0.01 0.22,-0.1 0.18,-0.26 -0.03,-0.1 -0.11,-0.23 -0.17,-0.3 -0.1,-0.13 -0.16,-0.2 -0.26,-0.32 -0.06,-0.07 -0.13,-0.15 -0.19,-0.21 -0.01,-0.01 -0.02,-0.02 -0.03,-0.03l-0.12 -0.12c-0.06,-0.06 -0.11,-0.11 -0.17,-0.18 -0.11,-0.12 -0.11,-0.19 -0.02,-0.31 0.1,-0.14 0.19,-0.27 0.28,-0.42 0.11,-0.17 0.26,-0.39 0.35,-0.57 0.07,-0.13 0.18,-0.33 0.21,-0.48 0.03,-0.19 -0.14,-0.19 -0.26,-0.19 -0.08,0 -0.16,0 -0.23,0 -0.11,0 -0.35,-0.01 -0.44,0.02 -0.12,0.04 -0.15,0.15 -0.2,0.26 -0.07,0.16 -0.23,0.47 -0.32,0.61 -0.12,0.2 -0.24,0.36 -0.39,0.54 -0.05,0.06 -0.18,0.18 -0.26,0.2 -0.17,0.04 -0.15,-0.17 -0.15,-0.3l0 -0.92c0,-0.13 0.02,-0.33 -0.07,-0.39 -0.06,-0.03 -0.13,-0.02 -0.21,-0.02 -0.23,0 -0.46,0 -0.7,0 -0.11,0 -0.32,-0.03 -0.34,0.12 -0.01,0.07 0.04,0.12 0.07,0.16 0.13,0.16 0.18,0.29 0.18,0.52 0,0.15 0,0.31 0,0.46 0,0.15 0.01,0.31 -0,0.46 -0,0.07 -0.01,0.14 -0.06,0.17 -0.08,0.04 -0.19,-0.04 -0.23,-0.09 -0.02,-0.02 -0.04,-0.04 -0.06,-0.06 -0.11,-0.13 -0.2,-0.26 -0.29,-0.41 -0.16,-0.27 -0.34,-0.63 -0.45,-0.94 -0.02,-0.06 -0.04,-0.11 -0.06,-0.17 -0.02,-0.06 -0.04,-0.11 -0.08,-0.15 -0.09,-0.1 -0.23,-0.08 -0.38,-0.08 -0.09,0 -0.4,-0 -0.46,0z"/>
 </g>
</svg>
