<?xml version="1.0" encoding="UTF-8"?>
<!DOCTYPE svg PUBLIC "-//W3C//DTD SVG 1.1//EN" "http://www.w3.org/Graphics/SVG/1.1/DTD/svg11.dtd">
<!-- Creator: CorelDRAW -->
<svg xmlns="http://www.w3.org/2000/svg" xml:space="preserve" width="20.7323mm" height="20.7323mm" version="1.1" style="shape-rendering:geometricPrecision; text-rendering:geometricPrecision; image-rendering:optimizeQuality; fill-rule:evenodd; clip-rule:evenodd"
viewBox="0 0 9.75 9.75"
 xmlns:xlink="http://www.w3.org/1999/xlink"
 xmlns:xodm="http://www.corel.com/coreldraw/odm/2003">
 <defs>
  <style type="text/css">
   <![CDATA[
    .fil1 {fill:#FEFEFE}
    .fil0 {fill:#90A4BD}
   ]]>
  </style>
 </defs>
 <g id="Слой_x0020_1">
  <metadata id="CorelCorpID_0Corel-Layer"/>
  <path class="fil0" d="M4.88 0c2.69,0 4.88,2.18 4.88,4.88 0,2.69 -2.18,4.88 -4.88,4.88 -2.69,0 -4.88,-2.18 -4.88,-4.88 0,-2.69 2.18,-4.88 4.88,-4.88z"/>
  <path class="fil1" d="M4.23 6.13c-0.02,0.04 -0.27,0.28 -0.32,0.33 -0.12,0.12 -0.58,0.55 -0.63,0.67 -0.15,0.37 0.18,0.74 0.56,0.62 0.15,-0.05 0.28,-0.21 0.37,-0.29l0.65 -0.65 0.65 0.65c0.08,0.08 0.22,0.25 0.35,0.29 0.44,0.16 0.86,-0.38 0.45,-0.79 -0.09,-0.09 -0.79,-0.78 -0.82,-0.82 0.06,-0.04 0.39,-0.07 0.78,-0.31 0.12,-0.07 0.22,-0.13 0.28,-0.27 0.11,-0.28 -0.07,-0.62 -0.4,-0.63 -0.18,-0.01 -0.27,0.08 -0.4,0.15 -0.58,0.28 -1.2,0.28 -1.78,0 -0.13,-0.06 -0.22,-0.15 -0.4,-0.15 -0.33,0.01 -0.52,0.35 -0.41,0.63 0.06,0.14 0.15,0.2 0.27,0.27 0.17,0.1 0.38,0.19 0.57,0.25 0.07,0.02 0.17,0.03 0.22,0.07zm0.53 -4.41c-0.81,0.06 -1.47,0.74 -1.4,1.62 0.06,0.8 0.75,1.46 1.62,1.39 0.81,-0.06 1.46,-0.74 1.39,-1.63 -0.06,-0.79 -0.75,-1.46 -1.62,-1.39zm0.01 0.87c-0.34,0.05 -0.6,0.34 -0.55,0.73 0.04,0.34 0.35,0.61 0.74,0.55 0.33,-0.05 0.59,-0.34 0.54,-0.73 -0.04,-0.34 -0.35,-0.61 -0.74,-0.55z"/>
 </g>
</svg>
