<?xml version="1.0" encoding="UTF-8"?>
<!DOCTYPE svg PUBLIC "-//W3C//DTD SVG 1.1//EN" "http://www.w3.org/Graphics/SVG/1.1/DTD/svg11.dtd">
<!-- Creator: CorelDRAW -->
<svg xmlns="http://www.w3.org/2000/svg" xml:space="preserve" width="8.0525mm" height="14.0909mm" version="1.1" style="shape-rendering:geometricPrecision; text-rendering:geometricPrecision; image-rendering:optimizeQuality; fill-rule:evenodd; clip-rule:evenodd"
viewBox="0 0 1.47 2.57"
 xmlns:xlink="http://www.w3.org/1999/xlink"
 xmlns:xodm="http://www.corel.com/coreldraw/odm/2003">
 <defs>
  <style type="text/css">
   <![CDATA[
    .fil0 {fill:#FEFEFE}
   ]]>
  </style>
 </defs>
 <g id="Слой_x0020_1">
  <metadata id="CorelCorpID_0Corel-Layer"/>
  <path id="telegram.cdr" class="fil0" d="M0.7 0.37c-0.14,0.02 -0.25,0.14 -0.23,0.31 0.02,0.14 0.15,0.26 0.32,0.23 0.14,-0.02 0.25,-0.15 0.23,-0.31 -0.02,-0.14 -0.15,-0.26 -0.31,-0.23zm-0.01 -0.37c-0.35,0.03 -0.62,0.31 -0.6,0.69 0.02,0.34 0.32,0.62 0.69,0.59 0.34,-0.03 0.62,-0.32 0.59,-0.69 -0.02,-0.34 -0.32,-0.62 -0.69,-0.59zm-0.23 1.88c-0.01,0.02 -0.11,0.12 -0.14,0.14 -0.05,0.05 -0.25,0.23 -0.27,0.28 -0.06,0.16 0.08,0.31 0.24,0.26 0.06,-0.02 0.12,-0.09 0.16,-0.12l0.28 -0.28 0.28 0.27c0.04,0.04 0.09,0.11 0.15,0.13 0.19,0.07 0.37,-0.16 0.19,-0.33 -0.04,-0.04 -0.34,-0.33 -0.35,-0.35 0.03,-0.02 0.17,-0.03 0.33,-0.13 0.05,-0.03 0.09,-0.06 0.12,-0.12 0.05,-0.12 -0.03,-0.26 -0.17,-0.27 -0.08,-0 -0.12,0.03 -0.17,0.06 -0.25,0.12 -0.51,0.12 -0.76,0 -0.06,-0.03 -0.09,-0.06 -0.17,-0.06 -0.14,0 -0.22,0.15 -0.18,0.27 0.02,0.06 0.06,0.08 0.12,0.12 0.07,0.04 0.16,0.08 0.24,0.11 0.03,0.01 0.07,0.01 0.09,0.03z"/>
 </g>
</svg>
