<?xml version="1.0" encoding="UTF-8"?>
<!DOCTYPE svg PUBLIC "-//W3C//DTD SVG 1.1//EN" "http://www.w3.org/Graphics/SVG/1.1/DTD/svg11.dtd">
<!-- Creator: CorelDRAW -->
<svg xmlns="http://www.w3.org/2000/svg" xml:space="preserve" width="20.7323mm" height="20.7323mm" version="1.1" style="shape-rendering:geometricPrecision; text-rendering:geometricPrecision; image-rendering:optimizeQuality; fill-rule:evenodd; clip-rule:evenodd"
viewBox="0 0 10.03 10.03"
 xmlns:xlink="http://www.w3.org/1999/xlink"
 xmlns:xodm="http://www.corel.com/coreldraw/odm/2003">
 <defs>
  <style type="text/css">
   <![CDATA[
    .fil1 {fill:#FEFEFE}
    .fil0 {fill:#90A4BD}
   ]]>
  </style>
 </defs>
 <g id="Слой_x0020_1">
  <metadata id="CorelCorpID_0Corel-Layer"/>
  <path class="fil0" d="M5.01 0c2.77,0 5.01,2.24 5.01,5.01 0,2.77 -2.24,5.01 -5.01,5.01 -2.77,0 -5.01,-2.24 -5.01,-5.01 0,-2.77 2.24,-5.01 5.01,-5.01z"/>
  <path class="fil1" d="M6.17 3.69c-0.01,0.1 -0.37,0.4 -0.46,0.48 -0.37,0.32 -0.79,0.73 -1.16,1.04l-0.33 0.3c-0.08,0.07 -0.06,0.11 -0.07,0.24 -0.01,0.1 -0.01,0.2 -0.02,0.3 -0.01,0.19 -0.04,0.41 -0.04,0.6 0.19,-0.02 0.25,-0.14 0.38,-0.27 0.11,-0.11 0.24,-0.21 0.34,-0.32 0.07,0.03 0.89,0.65 1.04,0.75 0.14,0.1 0.3,0.13 0.39,-0.04 0.07,-0.13 0.18,-0.77 0.22,-0.98 0.07,-0.33 0.14,-0.66 0.21,-1 0.07,-0.33 0.14,-0.65 0.21,-0.98 0.05,-0.23 0.28,-0.9 -0.16,-0.81l-3.48 1.34c-0.31,0.12 -1.1,0.32 -0.86,0.54 0.07,0.06 1.09,0.37 1.14,0.38 0.09,0.01 0.3,-0.15 0.38,-0.2 0.58,-0.38 1.25,-0.78 1.85,-1.16 0.11,-0.07 0.28,-0.21 0.42,-0.2z"/>
 </g>
</svg>
