<?xml version="1.0" encoding="UTF-8"?>
<!DOCTYPE svg PUBLIC "-//W3C//DTD SVG 1.1//EN" "http://www.w3.org/Graphics/SVG/1.1/DTD/svg11.dtd">
<!-- Creator: CorelDRAW -->
<svg xmlns="http://www.w3.org/2000/svg" xml:space="preserve" width="11.4109mm" height="9.5644mm" version="1.1" style="shape-rendering:geometricPrecision; text-rendering:geometricPrecision; image-rendering:optimizeQuality; fill-rule:evenodd; clip-rule:evenodd"
viewBox="0 0 3.02 2.53"
 xmlns:xlink="http://www.w3.org/1999/xlink"
 xmlns:xodm="http://www.corel.com/coreldraw/odm/2003">
 <defs>
  <style type="text/css">
   <![CDATA[
    .fil0 {fill:#FEFEFE}
   ]]>
  </style>
 </defs>
 <g id="Слой_x0020_1">
  <metadata id="CorelCorpID_0Corel-Layer"/>
  <path id="telegram.cdr" class="fil0" d="M2.5 0.46c-0,0.06 -0.24,0.26 -0.3,0.31 -0.24,0.21 -0.52,0.47 -0.75,0.68l-0.22 0.2c-0.05,0.04 -0.04,0.07 -0.04,0.16 -0,0.07 -0.01,0.13 -0.01,0.19 -0.01,0.12 -0.03,0.27 -0.03,0.39 0.12,-0.01 0.16,-0.09 0.25,-0.18 0.07,-0.07 0.16,-0.14 0.22,-0.21 0.05,0.02 0.58,0.42 0.67,0.49 0.09,0.06 0.2,0.08 0.25,-0.03 0.04,-0.09 0.12,-0.5 0.14,-0.63 0.05,-0.22 0.09,-0.43 0.14,-0.65 0.05,-0.21 0.09,-0.42 0.14,-0.64 0.03,-0.15 0.18,-0.58 -0.1,-0.53l-2.27 0.87c-0.2,0.08 -0.72,0.21 -0.56,0.35 0.04,0.04 0.71,0.24 0.74,0.25 0.06,0.01 0.2,-0.1 0.25,-0.13 0.38,-0.25 0.81,-0.51 1.2,-0.75 0.07,-0.04 0.18,-0.14 0.27,-0.13z"/>
 </g>
</svg>
